<?xml version="1.0" encoding="UTF-8" standalone="no" ?>
<!DOCTYPE svg PUBLIC "-//W3C//DTD SVG 1.1//EN"
    "http://www.w3.org/Graphics/SVG/1.1/DTD/svg11.dtd">
<!-- Created with Vectornator (http://vectornator.io/) -->
<svg
    height="438.0pt"
    stroke-miterlimit="10"
    style="fill-rule:nonzero;clip-rule:evenodd;stroke-linecap:round;stroke-linejoin:round;"
    version="1.1"
    viewBox="0 0 426 438"
    width="426.0pt"
    xml:space="preserve"
    xmlns="http://www.w3.org/2000/svg"
    xmlns:xlink="http://www.w3.org/1999/xlink"
>
<defs />
<g id="Untitled">
<path
            d="M203.25 41.625C156.391 41.6369 112.712 56.8052 78.1562 89C76.153 90.8617 74.0943 92.6173 72 94.375C48.461 115.036 30.9999 146.076 22.625 176C22.3983 176.804 22.1711 177.609 21.9375 178.438C17.7075 194.735 16.4436 211.162 16.5625 227.938C16.5655 228.855 16.5594 229.773 16.5625 230.719C16.624 243.297 16.9921 255.455 20.3438 267.656C21.0529 270.246 21.6865 272.858 22.3125 275.469C29.7792 305.648 44.4163 332.577 66 355C66.5187 355.55 67.0281 356.09 67.5625 356.656C96.79 387.534 139.97 412.133 183.25 414.094C185.528 414.139 187.785 414.153 190.062 414.156C191.318 414.161 191.313 414.182 192.594 414.188C194.356 414.193 196.113 414.188 197.875 414.188C200.517 414.19 203.171 414.2 205.812 414.219C219.077 414.263 232.103 413.57 245 410.188C245.648 410.018 246.302 409.862 246.969 409.688C254.392 407.706 261.713 405.431 269 403C270.615 402.466 270.603 402.482 272.25 401.938C315.899 386.384 351.871 349.149 372.156 308.406C380.986 289.763 385.549 270.37 388 250C388.17 248.764 388.356 247.523 388.531 246.25C389.298 240.101 389.188 233.937 389.188 227.75C389.19 225.534 389.2 223.31 389.219 221.094C389.272 207.859 388.138 194.907 384.75 182.062C384.533 181.227 384.317 180.392 384.094 179.531C380.32 165.367 375.194 152.665 368.031 139.875C367.116 138.225 366.247 136.548 365.375 134.875C361.845 128.104 357.648 122.051 353 116C352.372 115.178 351.741 114.347 351.094 113.5C328.142 84.118 298.184 63.2138 263 51C261.808 50.5811 260.604 50.1504 259.375 49.7188C255.285 48.3292 251.164 47.1455 247 46C246.301 45.7996 245.595 45.6128 244.875 45.4062C231.979 41.8563 219.093 41.6282 205.812 41.625C204.968 41.6231 204.12 41.627 203.25 41.625ZM196.906 61.6562C238.306 60.2238 280.229 73.3665 311.688 101.219C313.731 103.072 315.729 104.932 317.719 106.844C320.008 109.11 320.004 109.122 323 111C323 111.66 323 112.32 323 113C323.99 113.33 324.98 113.66 326 114C345.691 134.738 359.418 161.203 365.188 189.062C365.447 190.265 365.701 191.48 365.969 192.719C371.376 218.328 371.146 246.957 363 272C362.799 272.828 362.613 273.647 362.406 274.5C361.25 278.885 360.598 280.566 356.812 283.312C355.55 283.893 354.278 284.455 353 285C351.75 285.687 350.5 286.375 349.25 287.062C333.267 294.945 311.295 295.524 294.438 290.188C280.703 285.155 268.433 275.258 262 262C258.32 251.072 258.244 238.132 263.344 227.719C268.901 218.673 276.48 211.453 286.906 208.469C297.191 206.238 307.53 207.159 316.625 212.406C319.008 214.012 318.988 214.012 321.125 215.688C323.853 217.626 325.729 217.401 329 217C332.712 215.235 332.712 215.235 335 212C336.236 199.229 329.054 187.113 321.25 177.375C313.029 168.374 303.11 162.678 292 158C291.352 157.725 290.699 157.44 290.031 157.156C271.324 149.652 244.76 150.104 226 157C224.712 157.398 224.72 157.406 223.406 157.812C196.218 167.111 174.339 192.42 157.375 214.375C152.017 221.301 146.486 227.92 140.5 234.312C138.364 236.606 136.293 238.937 134.25 241.312C133.17 242.544 132.087 243.774 131 245C130.52 245.547 130.057 246.093 129.562 246.656C119.392 257.546 106.03 265.62 92.375 271.25C91.753 271.509 91.1408 271.765 90.5 272.031C76.0672 277.761 57.9617 276.133 43.75 270.406C38.2505 266.017 38.0546 253.924 37.2812 247.219C35.0418 221.401 37.0217 195.433 46 171C46.3442 170.042 46.6766 169.081 47.0312 168.094C55.2428 146.957 67.3409 128.328 83 112C83.7657 111.183 84.5236 110.373 85.3125 109.531C114.624 79.0885 155.507 63.0887 196.906 61.6562ZM261.656 171.594C272.417 171.634 282.03 173.968 291.562 178.938C292.246 179.272 292.92 179.593 293.625 179.938C297.277 181.794 299.888 183.438 302 187C301.427 187.065 300.841 187.121 300.25 187.188C280.705 189.471 264.894 193.92 251.781 209.688C241.631 222.984 238.634 237.336 240.281 253.875C241.929 264.931 246.22 275.141 253 284C253.438 284.602 253.892 285.192 254.344 285.812C266.198 300.971 286.406 309.625 305 312C309.026 312.298 313.026 312.38 317.062 312.375C318.134 312.376 319.209 312.374 320.312 312.375C330.223 312.245 339.452 310.549 349 308C342.842 320.629 334.625 331.9 324.406 341.562C322.761 343.15 322.765 343.15 321 346C320.34 346 319.68 346 319 346C319 346.66 319 347.32 319 348C316.031 350.761 312.812 353.214 309.625 355.719C308.064 356.952 306.512 358.212 304.969 359.469C284.427 375.866 261.354 385.598 236 392C234.865 392.292 234.876 392.295 233.719 392.594C194.288 402.283 151.839 391.439 117.688 371.125C87.9459 353.005 63.9338 327.13 50 295C50 294.34 50 293.68 50 293C51.6571 293.238 51.6532 293.226 53.3438 293.469C81.2845 296.924 106.187 289.655 128.719 273C131.197 271.052 133.604 269.048 136 267C136.782 266.34 137.569 265.68 138.375 265C142.666 261.295 146.527 257.451 150.188 253.125C152.196 250.764 154.285 248.476 156.375 246.188C160.244 241.901 163.898 237.486 167.531 233C173.951 225.172 180.604 217.488 187.312 209.906C188.568 208.483 189.8 207.069 191.031 205.625C196.497 199.33 202.377 194.055 209 189C209.79 188.383 210.592 187.761 211.406 187.125C225.408 176.699 241.055 171.43 258.5 171.625C259.538 171.613 260.587 171.606 261.656 171.594Z"
            fill="#0b2042"
            fill-rule="nonzero"
            opacity="1"
            stroke="none"
        />
<path
            d="M103.076 134.337C104.133 134.322 104.133 134.322 105.211 134.306C107.536 134.279 109.859 134.288 112.184 134.301C113.803 134.295 115.422 134.288 117.041 134.279C120.433 134.267 123.824 134.274 127.216 134.293C131.559 134.316 135.9 134.289 140.243 134.248C143.586 134.223 146.929 134.225 150.272 134.236C151.873 134.238 153.474 134.23 155.074 134.213C157.316 134.193 159.554 134.211 161.795 134.24C163.705 134.242 163.705 134.242 165.654 134.245C170.355 135.306 171.382 137.012 174 141C174.684 145.329 174.528 147.191 172.125 150.875C168.619 154.381 166.386 154.134 161.518 154.161C160.853 154.166 160.188 154.171 159.502 154.176C157.297 154.191 155.092 154.198 152.887 154.203C151.355 154.209 149.822 154.215 148.29 154.22C145.075 154.231 141.859 154.237 138.644 154.24C134.528 154.246 130.412 154.27 126.296 154.298C123.13 154.317 119.964 154.322 116.797 154.324C115.28 154.327 113.763 154.335 112.246 154.348C110.12 154.365 107.996 154.363 105.87 154.356C104.661 154.36 103.453 154.364 102.207 154.367C97.7135 153.853 95.1535 152.154 92 149C91.6641 147.012 91.6641 147.012 91.625 144.688C91.5966 143.928 91.5683 143.169 91.5391 142.387C92.8321 135.691 96.8242 134.372 103.076 134.337Z"
            fill="#0a2041"
            fill-rule="nonzero"
            opacity="1"
            stroke="none"
        />
<path
            d="M81.7812 183.406C83.6506 183.406 83.6506 183.406 85.5577 183.406C88.864 183.413 92.169 183.443 95.4749 183.482C97.4983 183.5 99.521 183.503 101.544 183.499C105.436 183.492 109.327 183.507 113.219 183.531C115.027 183.532 115.027 183.532 116.871 183.532C118.558 183.556 118.558 183.556 120.279 183.58C121.266 183.588 122.252 183.597 123.268 183.606C126.481 184.069 128.386 185.104 131 187C132.136 189.272 132.264 190.783 132.375 193.312C132.424 194.072 132.473 194.831 132.523 195.613C131.922 198.354 130.928 199.99 128.896 201.926C124.486 204.424 118.92 203.705 114 203.664C112.732 203.669 111.463 203.674 110.156 203.679C107.476 203.682 104.797 203.675 102.117 203.652C98.6902 203.623 95.2653 203.64 91.8384 203.67C88.5589 203.692 85.2796 203.676 82 203.664C80.7728 203.674 79.5456 203.684 78.2812 203.695C68.824 203.565 68.824 203.565 65.729 200.601C63.9626 197.944 63.3195 196.654 63.375 193.5C63.3621 192.768 63.3492 192.036 63.3359 191.281C65.9781 182.204 73.8772 183.299 81.7812 183.406Z"
            fill="#0b2142"
            fill-rule="nonzero"
            opacity="1"
            stroke="none"
        />
</g>
</svg>
